<svg class="brxe-svg" id="brxe-wlbrtv" xmlns="http://www.w3.org/2000/svg" xmlns:xlink="http://www.w3.org/1999/xlink" data-name="Group 766" width="117.557" height="18" viewBox="0 0 117.557 18"><defs><clipPath id="clip-path"><rect id="Rectangle_351" data-name="Rectangle 351" width="117.557" height="18" fill="#fff"></rect></clipPath></defs><g id="Group_766-2" data-name="Group 766" transform="translate(0 0)" clip-path="url(#clip-path)"><path id="Path_624" data-name="Path 624" d="M75.068,3.538c-1.236-.039-2.462-.039-3.643,0H71.4v.024c-.018,2.214-.015,4.465-.011,6.642V13.3h.023q.333.028.667.028c.224,0,.457-.01.684-.03h.021v-.022c.016-.51.008-1.028,0-1.528-.024-.766-.007-1.532.045-2.3.335-.02.684-.01,1.022,0A4.533,4.533,0,0,0,76.456,9a2.755,2.755,0,0,0,1.3-1.82,3.226,3.226,0,0,0-.346-2.273,2.948,2.948,0,0,0-2.346-1.369m1.271,3.236a1.562,1.562,0,0,1-1.009,1.235,13.046,13.046,0,0,1-1.888.048c-.207,0-.414-.009-.622-.01a20.749,20.749,0,0,1,.02-3.108,8.256,8.256,0,0,0,.933-.009,3.4,3.4,0,0,1,2.058.322,1.592,1.592,0,0,1,.509,1.521" transform="translate(2.572 0.126)" fill="#fff"></path><path id="Path_625" data-name="Path 625" d="M103.252,6.6a3.937,3.937,0,0,0-1.424,3.606,3.559,3.559,0,0,0,1.979,2.948,3.347,3.347,0,0,0,1.554.369,3.712,3.712,0,0,0,1.278-.228,3.219,3.219,0,0,0,1.9-1.778l.008-.022-.021-.009a3.44,3.44,0,0,1-.312-.165,1.384,1.384,0,0,0-.842-.268h-.008l-.005.005c-.1.1-.208.2-.312.3a1.992,1.992,0,0,1-1.331.787,2.128,2.128,0,0,1-1.794-.569,1.815,1.815,0,0,1-.595-1.516c.795-.016,1.6-.01,2.382-.006.957,0,1.946.01,2.92-.02h.02v-.021a3.862,3.862,0,0,0-.846-3,3.441,3.441,0,0,0-4.559-.414m3.875,2.231c-1.267.048-2.544.047-3.8,0a2.067,2.067,0,0,1,1.889-1.522,1.721,1.721,0,0,1,1.283.4,1.689,1.689,0,0,1,.622,1.126" transform="translate(3.668 0.213)" fill="#fff"></path><path id="Path_626" data-name="Path 626" d="M113.566,6.072V6.054h-.019A3.077,3.077,0,0,0,112,6.046a6.273,6.273,0,0,0-.749.425c-.11.068-.222.14-.334.207-.13-.174-.245-.339-.352-.5l-.006-.01h-.012a9.8,9.8,0,0,0-1.09.029h-.022v.022c-.028,2.31-.028,4.655,0,6.967v.022h.021a5.819,5.819,0,0,0,.63.034,5.671,5.671,0,0,0,.76-.051h.02v-.021c.011-.622.007-1.25,0-1.865,0-.674-.009-1.371.006-2.057a1.854,1.854,0,0,1,1.178-1.767,2.988,2.988,0,0,1,1.082-.008c.149.017.3.035.453.042h.027V7.49a12.7,12.7,0,0,0-.042-1.418" transform="translate(3.943 0.214)" fill="#fff"></path><path id="Path_627" data-name="Path 627" d="M100.243,6.564a2.326,2.326,0,0,0-1.761-.622,2.921,2.921,0,0,0-1.84.634l-.223.137c-.046-.136-.122-.369-.162-.489V6.21h-.015a5,5,0,0,0-1.281-.021H94.94v.022c-.029,2.243-.029,4.588,0,6.97V13.2h.023a7.169,7.169,0,0,0,1.4-.005h.022v-.015c.009-.622.006-1.258,0-1.865,0-.675-.01-1.375.005-2.063A1.989,1.989,0,0,1,97.5,7.423a1.889,1.889,0,0,1,1.589.138,1.092,1.092,0,0,1,.53.863,25.858,25.858,0,0,1,.067,2.862c-.008.627-.018,1.275.005,1.911v.022h.022c.207.019.408.029.621.029a7.027,7.027,0,0,0,.739-.039h.022V11.87c0-1.14,0-2.328-.008-3.491a2.48,2.48,0,0,0-.84-1.806" transform="translate(3.42 0.214)" fill="#fff"></path><path id="Path_628" data-name="Path 628" d="M84.552,9.607V9.251a4.2,4.2,0,0,0-.254-1.8,3.388,3.388,0,0,0-5.666,0l-.008.017.013.013a4.13,4.13,0,0,0,.961.725l.018.008.012-.013a2.242,2.242,0,0,1,1.993-.89,1.612,1.612,0,0,1,1.6,1.56,8.038,8.038,0,0,1-.83-.118,5.172,5.172,0,0,0-1.3-.119,3.855,3.855,0,0,0-1.537.429A2.194,2.194,0,0,0,78.5,10.229a2.14,2.14,0,0,0,.1,1.917,2.521,2.521,0,0,0,1.783,1.3,1.927,1.927,0,0,0,.622.1A4.145,4.145,0,0,0,83.1,12.74q.107.155.211.311l.119.171h.01a7.388,7.388,0,0,0,1.06.01h.023v-.022c.031-.7.026-1.418.021-2.109,0-.487-.006-.991,0-1.487m-1.4.709a2.042,2.042,0,0,1-1.889,1.9,1.311,1.311,0,0,1-1.45-1.036,1.025,1.025,0,0,1,.255-.8A1.5,1.5,0,0,1,81.1,9.874c.159-.013.325-.023.5-.023a2.273,2.273,0,0,1,1.545.475" transform="translate(2.822 0.213)" fill="#fff"></path><path id="Path_629" data-name="Path 629" d="M94.171,12.117h-.024c-.137,0-.278.018-.413.029a4.148,4.148,0,0,1-.752.022.715.715,0,0,1-.468-.771c-.018-1.264-.01-2.531,0-3.759.42-.056.85-.074,1.266-.091l.292-.012h.023V7.512a12.281,12.281,0,0,0-.007-1.25v-.02h-.02a3.333,3.333,0,0,0-.61-.011,1.868,1.868,0,0,1-.931-.113c-.021-.293-.021-.592-.021-.881s0-.585-.019-.878V4.338h-.023c-.4-.026-.828-.032-1.313-.021h-.019v.019A5.047,5.047,0,0,0,91.05,5.59c0,.178.006.363,0,.543a2.758,2.758,0,0,1-.806.111,3.7,3.7,0,0,0-.385.024h-.02v.021c-.025.374-.033.756-.03,1.17v.021l.087.012c.365.053.745.1,1.118.167A20.744,20.744,0,0,1,91.055,9.8a20.165,20.165,0,0,0,.048,2.21,1.774,1.774,0,0,0,1.036,1.375h.005a3.163,3.163,0,0,0,.881.109c.245,0,.489-.018.726-.034l.3-.02h.018v-.018a3.553,3.553,0,0,0,.108-1.279Z" transform="translate(3.236 0.155)" fill="#fff"></path><path id="Path_630" data-name="Path 630" d="M89.333,6.162H89.27a7.79,7.79,0,0,0-.92-.013,2.292,2.292,0,0,0-1.21.494c-.114.075-.234.152-.351.221l-.087-.3-.051-.193h-.016a4.87,4.87,0,0,0-1.158-.03h-.023v.023c-.031,2.694-.029,4.92,0,6.991v.023h.023q.281.016.559.016c.262,0,.518-.01.771-.031h.022v-.022c.03-.725.024-1.464.017-2.176-.006-.68-.013-1.382.012-2.072a1.763,1.763,0,0,1,.646-1.2,1.891,1.891,0,0,1,1.266-.352,4.9,4.9,0,0,0,.552-.044h.021V7.477c.013-.467.008-.888-.013-1.287Z" transform="translate(3.078 0.221)" fill="#fff"></path><path id="Path_631" data-name="Path 631" d="M34.826,7.972h-.088c-.484,0-.976-.006-1.45-.015a28.686,28.686,0,0,0-3.376.073l-.073.007-.013.071a1.84,1.84,0,0,0,.1,1.2l.026.052H30c.518.024,1.036.018,1.544.012.582-.006,1.184-.012,1.774.026a2.693,2.693,0,0,1-.829,1.812,3.163,3.163,0,0,1-2.177.923h-.022a3.6,3.6,0,0,1-3.745-2.765,3.844,3.844,0,0,1,.622-3.183,3.645,3.645,0,0,1,4.006-1.264,4.587,4.587,0,0,1,1.409.89l.18.146.061-.052a9.21,9.21,0,0,0,.907-.881l.042-.048-.025-.059a3.007,3.007,0,0,0-1.6-1.3,5.442,5.442,0,0,0-5.205.611,5.272,5.272,0,0,0-1.068,7.378,5.326,5.326,0,0,0,.8.857,5.239,5.239,0,0,0,3.4,1.209,4.663,4.663,0,0,0,4.772-5.619Z" transform="translate(0.895 0.116)" fill="#fff"></path><path id="Path_632" data-name="Path 632" d="M41.042,6.5A3.813,3.813,0,0,0,38,5.972h-.007A3.634,3.634,0,0,0,35.4,8.541a4.041,4.041,0,0,0,.982,4.032,3.981,3.981,0,0,0,2.431,1.036,3.742,3.742,0,0,0,3.315-1.816,3.96,3.96,0,0,0-1.088-5.3m-.077,4.113a2.115,2.115,0,0,1-2.655,1.376,2.078,2.078,0,0,1-.664-.351,2.55,2.55,0,0,1-.773-2.279A2.067,2.067,0,0,1,40.438,8.01a2.608,2.608,0,0,1,.528,2.609" transform="translate(1.269 0.211)" fill="#fff"></path><path id="Path_633" data-name="Path 633" d="M57.671,6.109l-.09-.005a9.89,9.89,0,0,0-1.239,0h-.067l-.167.526-.23-.142a2.862,2.862,0,0,0-1.705-.615,3.387,3.387,0,0,0-3.444,2.652,4.395,4.395,0,0,0,.609,3.7A3.5,3.5,0,0,0,53.792,13.6a3.725,3.725,0,0,0,2.363-.8,2.379,2.379,0,0,1-.283,1.359,2.059,2.059,0,0,1-2.485.7,3.037,3.037,0,0,1-.862-.754c-.1-.111-.2-.221-.3-.325l-.022-.022-.029-.006a1.525,1.525,0,0,0-1.158.451l-.122.093.021.065a2.98,2.98,0,0,0,2.4,2.015,8.132,8.132,0,0,0,.9.056,3.749,3.749,0,0,0,2.041-.518,3.418,3.418,0,0,0,1.441-2.98c-.005-.869,0-1.739,0-2.609,0-1.354.008-2.753-.02-4.129Zm-2.59,5.762a1.948,1.948,0,0,1-2.307-.341,2.778,2.778,0,0,1-.591-2.383,2.249,2.249,0,0,1,1.208-1.635,2.1,2.1,0,0,1,1.742.1,2.64,2.64,0,0,1-.052,4.248" transform="translate(1.822 0.211)" fill="#fff"></path><path id="Path_634" data-name="Path 634" d="M64.623,5.878a3.237,3.237,0,0,0-2.56,1.016,4.263,4.263,0,0,0-1.119,2.9A4.119,4.119,0,0,0,62.4,12.878a4.275,4.275,0,0,0,2.248.741,2.922,2.922,0,0,0,.855-.134,3.087,3.087,0,0,0,2.321-2.021l.008-.081-.071-.034c-.352-.169-.715-.344-1.084-.5l-.064-.027-.048.054c-.067.079-.136.161-.207.243a2.052,2.052,0,0,1-1.3.932,2.007,2.007,0,0,1-1.775-.471,1.767,1.767,0,0,1-.641-1.444c.7-.032,1.411-.019,2.1-.006a22.237,22.237,0,0,0,3.108-.088l.085-.01V9.949a4.543,4.543,0,0,0-.425-2.383,3.34,3.34,0,0,0-2.908-1.7m-.932,1.668h0a2.1,2.1,0,0,1,2.065.234,1.9,1.9,0,0,1,.513.95l.015.045c-1.221.028-2.467.019-3.557.007a1.807,1.807,0,0,1,.96-1.235" transform="translate(2.196 0.211)" fill="#fff"></path><path id="Path_635" data-name="Path 635" d="M60.147,3.46h-.091a6.026,6.026,0,0,0-1.4.055l-.082.015V6.347c0,2.273-.009,4.623.017,6.934v.093h.093c.1,0,.206.01.31.018.148.01.3.021.45.021a1.891,1.891,0,0,0,.67-.1l.064-.024V9.767c.006-2.037.012-4.144-.026-6.216Z" transform="translate(2.111 0.124)" fill="#fff"></path><path id="Path_636" data-name="Path 636" d="M48.436,6.332A3.834,3.834,0,0,0,45.595,6h-.008a3.746,3.746,0,0,0-2.624,3.083A4.045,4.045,0,0,0,43.6,12.04a3.816,3.816,0,0,0,2.984,1.582,3.761,3.761,0,0,0,3.1-1.631,3.994,3.994,0,0,0,.572-3.233,3.646,3.646,0,0,0-1.817-2.426m-.524,5.309a2.056,2.056,0,0,1-2.47.1,2.468,2.468,0,0,1-.932-2.429,2.125,2.125,0,0,1,3.646-1.3,2.649,2.649,0,0,1,.61,1.975,2.309,2.309,0,0,1-.854,1.644" transform="translate(1.546 0.211)" fill="#fff"></path><path id="Path_637" data-name="Path 637" d="M17.358,7.394a5.981,5.981,0,0,0-.944-.028H9.031a2.68,2.68,0,0,0-.045.75c.019.911-.024,1.821.019,2.73,1.535.028,3.071-.01,4.606.018A3.978,3.978,0,0,1,12,13.534h-.013a6.536,6.536,0,0,1-1.524.671,6.361,6.361,0,0,1-2.8.017,5.423,5.423,0,0,1-3.179-2.4c-.226-.343-.348-.741-.543-1.1h0c-.073-.4-.2-.8-.238-1.21A5.778,5.778,0,0,1,3.937,7.3q.214-.522.481-1.022A5.449,5.449,0,0,1,6.849,4.068,5.3,5.3,0,0,1,9.81,3.687a4.813,4.813,0,0,1,2.549,1.261c.454-.408.865-.864,1.305-1.288.413-.435.87-.83,1.261-1.287a6.607,6.607,0,0,0-1.434-1.117A8.859,8.859,0,0,0,2.635,2.64,7.8,7.8,0,0,0,.95,5V5A8.052,8.052,0,0,0,.18,7.13,9.383,9.383,0,0,0,.016,9.513a8.521,8.521,0,0,0,.913,3.495h0a8.966,8.966,0,0,0,2.98,3.426A9.187,9.187,0,0,0,8.959,18a9.1,9.1,0,0,0,5.05-1.494,3.961,3.961,0,0,0,.869-.735v0l.007.006a2.537,2.537,0,0,0,.648-.632,9.3,9.3,0,0,0,1.825-7.75" transform="translate(0 0)" fill="#fff"></path></g></svg>