<svg class="brxe-svg" id="brxe-vpbqij" xmlns="http://www.w3.org/2000/svg" xmlns:xlink="http://www.w3.org/1999/xlink" width="69.99" height="15.242" viewBox="0 0 69.99 15.242"><defs><clipPath id="clip-path"><rect id="Rectangle_348" data-name="Rectangle 348" width="69.99" height="15.242" fill="#fff"></rect></clipPath><clipPath id="clip-path-2"><path id="Path_597" data-name="Path 597" d="M1.9,0A1.9,1.9,0,0,0,0,1.9V13.337a1.9,1.9,0,0,0,1.9,1.9H13.336a1.9,1.9,0,0,0,1.9-1.9V1.9a1.9,1.9,0,0,0-1.9-1.9Z" fill="#fff"></path></clipPath></defs><g id="Group_762" data-name="Group 762" clip-path="url(#clip-path)"><g id="Group_754" data-name="Group 754"><g id="Group_753" data-name="Group 753" clip-path="url(#clip-path-2)"><rect id="Rectangle_341" data-name="Rectangle 341" width="21.552" height="21.552" transform="translate(-7.621 7.621) rotate(-44.999)" fill="#fff"></rect></g></g><g id="Group_761" data-name="Group 761" transform="translate(3.81 1.905)"><g id="Group_764" data-name="Group 764"><path id="Path_598" data-name="Path 598" d="M59.55,59.56h3.81v3.81H55.74V55.75h3.81Z" transform="translate(-55.74 -53.844)"></path><rect id="Rectangle_342" data-name="Rectangle 342" width="3.81" height="3.81" transform="translate(5.715)"></rect><path id="Path_600" data-name="Path 600" d="M280.713,44.39h-2v9.09h5.713V51.632h-3.71Z" transform="translate(-263.47 -43.261)" fill="#fff"></path><path id="Path_601" data-name="Path 601" d="M377.658,84.728a2.528,2.528,0,0,0-.924-.661,3.088,3.088,0,0,0-1.213-.231,3.938,3.938,0,0,0-1.356.231,3.258,3.258,0,0,0-1.1.661,3.109,3.109,0,0,0-.737,1.033,3.508,3.508,0,0,0,0,2.7,3.1,3.1,0,0,0,.738,1.033,3.26,3.26,0,0,0,1.1.663,3.941,3.941,0,0,0,1.355.231,3.5,3.5,0,0,0,1.463-.321,3.07,3.07,0,0,0,1.168-.911l-1.348-.989a2.162,2.162,0,0,1-.571.547,1.449,1.449,0,0,1-.8.211,1.414,1.414,0,0,1-.95-.327,1.526,1.526,0,0,1-.5-.879h4.467v-.6a4.17,4.17,0,0,0-.205-1.348,3.016,3.016,0,0,0-.583-1.035M373.981,86.4a1.226,1.226,0,0,1,.109-.443,1.158,1.158,0,0,1,.27-.373,1.417,1.417,0,0,1,.417-.263,1.452,1.452,0,0,1,.565-.1,1.141,1.141,0,0,1,.86.347,1.115,1.115,0,0,1,.321.835Z" transform="translate(-350.435 -80.011)" fill="#fff"></path><path id="Path_602" data-name="Path 602" d="M483.531,84.674a2.026,2.026,0,0,0-.874-.623,3.9,3.9,0,0,0-1.392-.212,4.5,4.5,0,0,0-1.489.25,3.539,3.539,0,0,0-1.258.752l1.025,1.053a2.359,2.359,0,0,1,.7-.547,1.887,1.887,0,0,1,.869-.2,1.321,1.321,0,0,1,.867.3,1,1,0,0,1,.364.815q-.4,0-.866.013a8.49,8.49,0,0,0-.938.077,5.589,5.589,0,0,0-.9.2,2.675,2.675,0,0,0-.777.379,1.782,1.782,0,0,0-.539.615,1.914,1.914,0,0,0-.2.911,1.845,1.845,0,0,0,.18.835,1.759,1.759,0,0,0,.49.6,2.106,2.106,0,0,0,.712.366,2.9,2.9,0,0,0,.841.122,2.948,2.948,0,0,0,1.124-.218,1.818,1.818,0,0,0,.854-.719h.024v.783h1.777V87.063a6.627,6.627,0,0,0-.128-1.38,2.4,2.4,0,0,0-.459-1.009m-1.19,3.236a1.036,1.036,0,0,1-.122.513,1.06,1.06,0,0,1-.327.36,1.625,1.625,0,0,1-.469.218,1.938,1.938,0,0,1-.547.077,1.231,1.231,0,0,1-.615-.167.547.547,0,0,1-.3-.514.622.622,0,0,1,.211-.5,1.4,1.4,0,0,1,.514-.27,2.758,2.758,0,0,1,.629-.109q.327-.019.547-.02h.474Z" transform="translate(-449.247 -80.014)" fill="#fff"></path><path id="Path_603" data-name="Path 603" d="M585,39.467h-.026a1.8,1.8,0,0,0-.854-.636A3.318,3.318,0,0,0,583,38.646a2.533,2.533,0,0,0-1.194.273,2.757,2.757,0,0,0-.892.738,3.446,3.446,0,0,0-.565,1.059,3.936,3.936,0,0,0-.2,1.252,3.7,3.7,0,0,0,.219,1.3,2.966,2.966,0,0,0,.623,1.021,2.793,2.793,0,0,0,.969.667,3.207,3.207,0,0,0,1.258.238,2.161,2.161,0,0,0,.623-.09,2.643,2.643,0,0,0,.552-.231,2.251,2.251,0,0,0,.436-.314,2.116,2.116,0,0,0,.3-.342h.025v.82h1.772V35.33H585Zm-.25,3.6a1.7,1.7,0,0,1-2.273,0,1.818,1.818,0,0,1,0-2.287,1.7,1.7,0,0,1,2.273,0,1.82,1.82,0,0,1,0,2.287Z" transform="translate(-544.303 -34.82)" fill="#fff"></path><rect id="Rectangle_345" data-name="Rectangle 345" width="1.925" height="6.24" transform="translate(44.049 3.979)" fill="#fff"></rect><path id="Path_604" data-name="Path 604" d="M754.284,84.686a1.708,1.708,0,0,0-.7-.623,2.664,2.664,0,0,0-1.181-.225,2.208,2.208,0,0,0-.642.09,2.274,2.274,0,0,0-.526.232,1.849,1.849,0,0,0-.4.321,1.56,1.56,0,0,0-.257.36h-.026v-.848H748.71v6.24h1.925V87.126a4.423,4.423,0,0,1,.038-.591,1.471,1.471,0,0,1,.161-.507.917.917,0,0,1,.353-.36,1.183,1.183,0,0,1,.6-.137.829.829,0,0,1,.867.552,1.766,1.766,0,0,1,.116.533c.013.192.019.379.019.558v3.056h1.926V86.789a7.084,7.084,0,0,0-.093-1.162,2.513,2.513,0,0,0-.34-.94" transform="translate(-701.346 -80.013)" fill="#fff"></path><path id="Path_605" data-name="Path 605" d="M851.351,35.14a3.366,3.366,0,0,0-1.264.2,1.708,1.708,0,0,0-.738.547,1.973,1.973,0,0,0-.347.8,5.035,5.035,0,0,0-.09.971v.963H847.64v1.541h1.271v4.7h1.925v-4.7h1.425V38.622h-1.425v-.85a1.074,1.074,0,0,1,.231-.815,1.029,1.029,0,0,1,.693-.2,1.468,1.468,0,0,1,.32.032,2.2,2.2,0,0,1,.308.1l.09-1.631a3.963,3.963,0,0,0-.552-.09q-.282-.025-.577-.026" transform="translate(-793.514 -34.643)" fill="#fff"></path><path id="Path_606" data-name="Path 606" d="M929.193,85.746a3.105,3.105,0,0,0-.738-1.034,3.257,3.257,0,0,0-1.1-.661,4.085,4.085,0,0,0-2.709,0,3.257,3.257,0,0,0-1.1.661,3.1,3.1,0,0,0-.738,1.034,3.459,3.459,0,0,0,0,2.7,3.088,3.088,0,0,0,.738,1.033,3.258,3.258,0,0,0,1.1.662,4.085,4.085,0,0,0,2.709,0,3.258,3.258,0,0,0,1.1-.662,3.1,3.1,0,0,0,.738-1.033,3.508,3.508,0,0,0,0-2.7m-2.059,2.492a1.7,1.7,0,0,1-2.273,0,1.821,1.821,0,0,1,0-2.287,1.7,1.7,0,0,1,2.273,0,1.821,1.821,0,0,1,0,2.287" transform="translate(-863.283 -79.996)" fill="#fff"></path><rect id="Rectangle_346" data-name="Rectangle 346" width="1.925" height="1.926" transform="translate(44.049 0.513)" fill="#fff"></rect></g></g></g></svg>