<svg class="brxe-svg" id="brxe-eoupvz" xmlns="http://www.w3.org/2000/svg" xmlns:xlink="http://www.w3.org/1999/xlink" data-name="Group 1423" width="63.673" height="11.636" viewBox="0 0 63.673 11.636"><defs><clipPath id="clip-path"><rect id="Rectangle_1092" data-name="Rectangle 1092" width="63.673" height="11.636" fill="none"></rect></clipPath></defs><g id="Group_1422" data-name="Group 1422" clip-path="url(#clip-path)"><path id="Path_2548" data-name="Path 2548" d="M95.874,6.135H96c1.566,0,3.133.007,4.7,0a3.388,3.388,0,0,1,2.4.948,3.582,3.582,0,0,1,1.2,2.31,3.506,3.506,0,0,1-1.682,3.546l-.061.04.443.748c.21.356.421.711.629,1.067a.151.151,0,0,0,.15.086q2.34-.007,4.68-.007a2.692,2.692,0,0,0,.912-.118,1.468,1.468,0,0,0,.425-.227.55.55,0,0,0,.113-.769,1.343,1.343,0,0,0-.351-.357c-.323-.212-.659-.409-1-.594-.527-.286-1.072-.543-1.593-.841a3.68,3.68,0,0,1-1.3-1.2,2.8,2.8,0,0,1,.368-3.459,3.377,3.377,0,0,1,1.876-.947,8.08,8.08,0,0,1,3.617.214l.4.112V9.1l-.124-.038c-.484-.152-.964-.324-1.455-.453a4.3,4.3,0,0,0-1.561-.131,1.321,1.321,0,0,0-.744.311.522.522,0,0,0,.012.795,5.014,5.014,0,0,0,.971.617c.627.331,1.256.657,1.872,1.007a3.652,3.652,0,0,1,1.335,1.243,2.85,2.85,0,0,1-.278,3.331,3.472,3.472,0,0,1-1.985,1.147,3.6,3.6,0,0,1-.795.087c-1.353,0-2.706,0-4.06,0q-1.452,0-2.9.009a.15.15,0,0,1-.151-.083q-.992-1.678-1.99-3.352c-.027-.045-.05-.079-.115-.079-.5,0-1,0-1.5,0a.753.753,0,0,0-.075.009v3.5h-.114c-.764,0-1.528,0-2.292,0-.09,0-.111-.026-.111-.112q0-5.337,0-10.673c0-.031,0-.062,0-.1Zm2.516,2.21c0,.036,0,.058,0,.079q0,1.4,0,2.8c0,.086.04.09.1.09.713,0,1.426,0,2.139,0a.965.965,0,0,0,.788-.375,1.688,1.688,0,0,0,.364-1.09,1.571,1.571,0,0,0-.211-.9,1.175,1.175,0,0,0-1.066-.617c-.661.014-1.324,0-1.986,0h-.123Zm-40.855,0H54.2V6.135h.1q7.173,0,14.346,0a.118.118,0,0,1,.133.1q1.948,5.344,3.9,10.688c.011.029.02.059.035.1-.041,0-.074,0-.107,0-.79,0-1.579,0-2.368,0a.118.118,0,0,1-.134-.1c-.255-.744-.514-1.488-.768-2.232a.14.14,0,0,0-.158-.115q-1.585.006-3.171,0a.121.121,0,0,0-.139.1c-.252.752-.509,1.5-.765,2.254-.016.049-.028.089-.1.089-.819,0-1.636,0-2.455,0-.013,0-.025,0-.054,0l3.165-8.665H60.053v8.663H57.535V8.344Zm10.086.688-.02,0-1.291,3.81h2.575L67.621,9.031Zm15.346,2.3H78.778v1.822h2.1c0,.111,0,.212,0,.312a.137.137,0,0,1-.039.072,4.48,4.48,0,0,1-.812.734,3.022,3.022,0,0,1-2.232.55,2.691,2.691,0,0,1-2.112-1.6,3.862,3.862,0,0,1-.221-2.688,3.058,3.058,0,0,1,.973-1.626,2.526,2.526,0,0,1,2.092-.582A2.766,2.766,0,0,1,80.647,9.74l.06.1,1.87-1.408c-.013-.024-.019-.039-.027-.052A4.1,4.1,0,0,0,80.687,6.6a5.361,5.361,0,0,0-3.441-.45,5.22,5.22,0,0,0-4.172,3.579,5.641,5.641,0,0,0-.1,3.353,5.169,5.169,0,0,0,2.515,3.361,4.955,4.955,0,0,0,3.09.617A4.018,4.018,0,0,0,80.8,16.032l.094-.079v1.066h2.078V11.336Zm9.156,2.087a.193.193,0,0,1-.045.118,8.829,8.829,0,0,1-.682.636,3.006,3.006,0,0,1-2.361.649,2.664,2.664,0,0,1-2.064-1.507,3.854,3.854,0,0,1-.233-2.909,2.974,2.974,0,0,1,1.01-1.559,2.537,2.537,0,0,1,2.018-.523,2.766,2.766,0,0,1,2.121,1.42c.016.03.035.059.056.1l1.869-1.408c-.02-.039-.035-.067-.05-.094a4.091,4.091,0,0,0-1.7-1.673,5.352,5.352,0,0,0-3.576-.521,5.209,5.209,0,0,0-4.07,3.3A5.628,5.628,0,0,0,84.191,13a5.163,5.163,0,0,0,2.668,3.517,4.944,4.944,0,0,0,2.955.545,4.025,4.025,0,0,0,2.215-1.028l.1-.085v1.071H94.2V11.333H90.01v1.82h2.114c0,.1,0,.184,0,.269Z" transform="translate(-48.974 -5.462)" fill="#fff"></path><path id="Path_2549" data-name="Path 2549" d="M1.777,0A1.777,1.777,0,1,0,3.554,1.777,1.777,1.777,0,0,0,1.777,0M1.4,2.141c.049.053.1.105.148.159a.183.183,0,0,1,0,.258A.16.16,0,0,1,1.3,2.537Q1,2.227.714,1.914a.181.181,0,0,1,0-.269c.19-.2.38-.41.573-.612A.293.293,0,0,1,1.394.958a.155.155,0,0,1,.183.066.193.193,0,0,1-.023.227c-.117.127-.235.253-.352.378l-.142.152h0l.336.36m1.444-.231c-.19.2-.38.41-.573.612A.293.293,0,0,1,2.16,2.6a.155.155,0,0,1-.183-.066A.193.193,0,0,1,2,2.3c.117-.127.235-.253.352-.378l.142-.152h0l-.336-.36c-.049-.053-.1-.105-.148-.159a.183.183,0,0,1,0-.258.16.16,0,0,1,.246.021q.292.31.581.623a.181.181,0,0,1,0,.269" fill="#fff"></path></g></svg>