<?xml version="1.0" encoding="UTF-8"?> <svg xmlns="http://www.w3.org/2000/svg" width="20.868" height="20.869" viewBox="0 0 20.868 20.869"><g id="Group_1374" data-name="Group 1374" transform="translate(-634.534 -6430.049)"><path id="Path_1949" data-name="Path 1949" d="M119.847,2.949c2.786,0,3.116.011,4.216.061A5.763,5.763,0,0,1,126,3.369a3.454,3.454,0,0,1,1.98,1.981,5.775,5.775,0,0,1,.36,1.937c.05,1.1.06,1.43.06,4.217s-.01,3.116-.06,4.216a5.775,5.775,0,0,1-.36,1.937A3.454,3.454,0,0,1,126,19.638a5.763,5.763,0,0,1-1.938.359c-1.1.05-1.43.061-4.216.061s-3.116-.011-4.216-.061a5.763,5.763,0,0,1-1.938-.359,3.454,3.454,0,0,1-1.98-1.981,5.775,5.775,0,0,1-.36-1.937c-.05-1.1-.06-1.43-.06-4.216s.01-3.117.06-4.217a5.775,5.775,0,0,1,.36-1.937,3.454,3.454,0,0,1,1.98-1.981,5.763,5.763,0,0,1,1.938-.359c1.1-.05,1.43-.061,4.216-.061m0-1.88c-2.834,0-3.189.012-4.3.063a7.666,7.666,0,0,0-2.533.485,5.106,5.106,0,0,0-1.848,1.2,5.134,5.134,0,0,0-1.2,1.849,7.66,7.66,0,0,0-.485,2.532c-.05,1.114-.062,1.469-.062,4.3s.012,3.189.062,4.3a7.672,7.672,0,0,0,.485,2.533,5.336,5.336,0,0,0,3.052,3.051,7.64,7.64,0,0,0,2.533.485c1.113.051,1.468.063,4.3.063s3.189-.012,4.3-.063a7.64,7.64,0,0,0,2.533-.485,5.336,5.336,0,0,0,3.052-3.051,7.671,7.671,0,0,0,.485-2.533c.05-1.113.062-1.469.062-4.3s-.012-3.189-.062-4.3a7.659,7.659,0,0,0-.485-2.532,5.134,5.134,0,0,0-1.2-1.849,5.106,5.106,0,0,0-1.848-1.2,7.666,7.666,0,0,0-2.533-.485c-1.113-.051-1.468-.063-4.3-.063" transform="translate(525.121 6428.98)" fill="#fff"></path><path id="Path_1950" data-name="Path 1950" d="M119.847,6.145a5.358,5.358,0,1,0,5.358,5.358,5.358,5.358,0,0,0-5.358-5.358m0,8.836a3.478,3.478,0,1,1,3.478-3.478,3.478,3.478,0,0,1-3.478,3.478" transform="translate(525.121 6428.98)" fill="#fff"></path><path id="Path_1951" data-name="Path 1951" d="M126.669,5.933a1.252,1.252,0,1,1-1.252-1.252,1.253,1.253,0,0,1,1.252,1.252" transform="translate(525.121 6428.98)" fill="#fff"></path></g></svg> 