<?xml version="1.0" encoding="UTF-8"?> <svg xmlns="http://www.w3.org/2000/svg" width="19.077" height="19.085" viewBox="0 0 19.077 19.085"><g id="Group_1306" data-name="Group 1306" transform="translate(-585.461 -9684.621)"><rect id="Rectangle_504" data-name="Rectangle 504" width="3.938" height="12.724" transform="translate(585.84 9690.982)" fill="#fff"></rect><path id="Path_651" data-name="Path 651" d="M2.329,59.52A2.348,2.348,0,1,0,0,57.172,2.339,2.339,0,0,0,2.329,59.52" transform="translate(585.461 9629.797)" fill="#fff"></path><path id="Path_652" data-name="Path 652" d="M10.613,67.23c0-1.789.823-2.854,2.4-2.854,1.448,0,2.144,1.023,2.144,2.854v6.679h3.92V65.853c0-3.408-1.932-5.056-4.63-5.056a4.435,4.435,0,0,0-3.834,2.1V61.185H6.835V73.909h3.778Z" transform="translate(585.461 9629.797)" fill="#fff"></path></g></svg> 