<?xml version="1.0" encoding="UTF-8"?> <svg xmlns="http://www.w3.org/2000/svg" id="Layer_2" viewBox="0 0 165.618 165.618"><defs><style>.cls-1{fill:#00d3af;stroke-width:0px;}</style></defs><g id="Layer_1-2"><path class="cls-1" d="m82.825,0C37.091-.009.009,37.058,0,82.792c-.009,45.734,37.058,82.816,82.792,82.825,45.734.009,82.816-37.058,82.825-82.792v-.033C165.609,37.071,128.547.009,82.825,0Zm.048,155.934c-40.383.013-73.13-32.713-73.144-73.096v-.046c.047-40.35,32.745-73.05,73.096-73.097,40.383-.013,73.13,32.713,73.144,73.096.013,40.383-32.713,73.13-73.096,73.144Z"></path><polygon class="cls-1" points="119.137 62.12 104.809 47.793 104.804 47.798 100.874 43.872 45.85 43.872 45.85 53.56 106.52 53.56 46.475 113.604 53.326 120.456 113.37 60.412 113.37 121.072 123.061 121.072 123.061 66.049 119.135 62.122 119.137 62.12"></polygon></g></svg> 