<?xml version="1.0" encoding="UTF-8"?> <svg xmlns="http://www.w3.org/2000/svg" id="Layer_2" viewBox="0 0 164.302 164.302"><defs><style>.cls-1{fill:#fff;stroke-width:0px;}</style></defs><g id="Layer_1-2"><path class="cls-1" d="m98.441,60.316h-34.279v16.078l34.279-.011c6.448,0,9.161-2.26,9.161-8.032,0-5.321-3.053-8.035-9.161-8.035Z"></path><path class="cls-1" d="m82.168,0C36.797-.009.009,36.764,0,82.134c-.009,45.371,36.764,82.158,82.134,82.168,45.37.009,82.157-36.763,82.168-82.132v-.035C164.291,36.777,127.524.011,82.168,0Zm16.161,94.147h-34.167v27.621h-20.709V42.564h54.879c20.474,0,30.657,8.372,30.657,25.226,0,16.178-9.281,26.357-30.661,26.357Z"></path></g></svg> 